{"accessors" : [{"bufferView" : 0, "byteOffset" : 0, "componentType" : 5123, "count" : 1410, "type" : "SCALAR", "max" : [1409], "min" : [0]}, {"bufferView" : 1, "byteOffset" : 0, "componentType" : 5126, "count" : 1410, "type" : "VEC3", "max" : [2.4093101024627686, 0.043035559356212616, 0.15903779864311218], "min" : [-2.447803020477295, -0.043035559356212616, -0.20431379973888397], "name" : "POSITION"}, {"bufferView" : 1, "byteOffset" : 12, "componentType" : 5126, "count" : 1410, "type" : "VEC3", "max" : [0.926573634147644, 1.0000044107437134, 1.0000044107437134], "min" : [-1.0000044107437134, -1.0000044107437134, -0.9998884201049805], "name" : "NORMAL"}, {"bufferView" : 1, "byteOffset" : 24, "componentType" : 5126, "count" : 1410, "type" : "VEC2", "max" : [0.9824479222297668, -0.014997599646449089], "min" : [0.025265930220484734, -0.9783629775047302], "name" : "TEXCOORD_0"}], "asset" : {"generator" : "Aspose.3D 22.7", "version" : "2.0"}, "buffers" : [{"uri" : "data:application/octet-stream;base64,", "byteLength" : 47948}], "bufferViews" : [{"buffer" : 0, "byteOffset" : 0, "byteLength" : 2820, "target" : 34963}, {"buffer" : 0, "byteOffset" : 2824, "byteLength" : 45120, "byteStride" : 32, "target" : 34962}], "images" : [{"uri" : "DefaultMaterial_Base_Color.png"}], "materials" : [{"name" : "Material", "pbrMetallicRoughness" : {"baseColorFactor" : [0.8, 0.8, 0.8, 1], "baseColorTexture" : {"index" : 0, "texCoord" : 0}, "metallicFactor" : 0, "roughnessFactor" : 0}, "emissiveFactor" : [0, 0, 0], "alphaMode" : "OPAQUE", "doubleSided" : false}], "meshes" : [{"primitives" : [{"attributes" : {"POSITION" : 1, "NORMAL" : 2, "TEXCOORD_0" : 3}, "indices" : 0, "material" : 0, "mode" : 4}], "name" : ""}], "nodes" : [{"mesh" : 0, "name" : "Cube"}], "samplers" : [{"magFilter" : 9729, "minFilter" : 9987, "wrapS" : 10497, "wrapT" : 10497}], "scene" : 0, "scenes" : [{"nodes" : [0]}], "textures" : [{"sampler" : 0, "source" : 0, "name" : "DefaultMaterial_Base_Color_png"}]}
